<svg version="1.2" xmlns="http://www.w3.org/2000/svg" viewBox="0 0 1640 664" width="208" height="65">
	<title>New Project</title>
	<style>
		.s0 { fill: #0535e8 } 
	</style>
	<path id="TRAVEL STORY" class="s0" aria-label="TRAVEL STORY"  d="m264.2 384h24.3v-85.2h33.6v-19.8h-91.5v19.8h33.6zm163.9 0l-23.5-33.7c13.7-5.9 21.6-17.4 21.6-33.2 0-23.5-17.6-38.1-45.6-38.1h-45.5v105h24.3v-29.2h21.2 1.2l20.3 29.2zm-26.6-66.9c0 11.4-7.5 18.3-22.3 18.3h-19.8v-36.6h19.8c14.8 0 22.3 6.8 22.3 18.3zm122.2 66.9h25.5l-46.9-105h-24l-46.8 105h24.9l9.3-22.5h48.7zm-50.2-40.9l16.7-40.2 16.6 40.2zm157.8-64.1l-32.4 75-32-75h-26.2l45.3 105h24l45.4-105zm57 85.5v-24.3h48.8v-18.9h-48.8v-22.8h55.2v-19.5h-79.3v105h81.3v-19.5zm76.5 19.5h76.9v-19.8h-52.6v-85.2h-24.3zm167.6 1.8c30 0 44.5-15 44.5-32.5 0-38.6-61-25.2-61-44.6 0-6.6 5.5-12 19.9-12 9.3 0 19.3 2.7 29.1 8.3l7.5-18.5c-9.8-6.1-23.3-9.3-36.5-9.3-29.8 0-44.2 14.9-44.2 32.7 0 39 61 25.5 61 45.2 0.1 6.4-5.8 11.2-20.2 11.2-12.6 0-25.8-4.5-34.6-10.9l-8.3 18.2c9.3 7.3 26.1 12.2 42.8 12.2zm81.4-1.8h24.3v-85.2h33.6v-19.8h-91.5v19.8h33.6zm120.3 1.8c33 0 57.5-22.9 57.5-54.3 0-31.3-24.5-54.3-57.5-54.3-33.2 0-57.5 23.1-57.5 54.3 0 31.2 24.3 54.3 57.5 54.3zm0-20.7c-18.8 0-32.9-13.6-32.9-33.6 0-19.9 14.1-33.6 32.9-33.6 18.7 0 32.8 13.7 32.8 33.6 0 20-14.1 33.6-32.8 33.6zm168.8 18.9l-23.6-33.7c13.6-5.9 21.6-17.4 21.6-33.2 0-23.5-17.5-38.1-45.6-38.1h-45.4v105h24.2v-29.2h21.2 1.2l20.2 29.2zm-26.5-66.9c0 11.4-7.5 18.3-22.4 18.3h-19.8v-36.6h19.8c14.9 0 22.4 6.8 22.4 18.3zm133.5-38.1h-23.9l-28 46.7-28.1-46.7h-25.8l40.7 67.5v37.5h24.3v-37.2z"/>
</svg>